<svg id="Layer_1_1_" enable-background="new 0 0 64 64" height="512" viewBox="0 0 64 64" width="512" xmlns="http://www.w3.org/2000/svg"><path d="m15 2h34v16h-34z" fill="#ffd086"/><path d="m59 22v36h-53v-36c0-2.21 1.79-4 4-4h45c2.21 0 4 1.79 4 4z" fill="#91cbd7"/><path d="m6 53h53v5h-53z" fill="#4e9bb9"/><path d="m59 55h2v3c0 2.21-1.79 4-4 4h-50c-2.21 0-4-1.79-4-4v-3h3 19l1 2h12l1-2z" fill="#f69489"/><path d="m10 22h45v29h-45z" fill="#ffe5ca"/><g fill="#68607c"><path d="m31 13h2v2h-2z"/><path d="m31 6h2v5h-2z"/><path d="m31 2h2v2h-2z"/><path d="m35 15h2v3h-2z"/><path d="m35 11h2v2h-2z"/><path d="m35 2h2v7h-2z"/><path d="m47 15h2v3h-2z"/><path d="m47 11h2v2h-2z"/><path d="m47 2h2v7h-2z"/><path d="m19 15h2v3h-2z"/><path d="m19 11h2v2h-2z"/><path d="m19 2h2v3h-2z"/><path d="m39 10h2v5h-2z"/><path d="m39 6h2v2h-2z"/><path d="m39 2h2v2h-2z"/><path d="m23 2h2v3h-2z"/><path d="m23 7h2v2h-2z"/><path d="m23 11h2v4h-2z"/><path d="m27 2h2v5h-2z"/><path d="m27 9h2v2h-2z"/><path d="m27 13h2v5h-2z"/><path d="m19 7h2v2h-2z"/><path d="m43 2h2v10h-2z"/><path d="m43 14h2v4h-2z"/><path d="m15 2h2v10h-2z"/><path d="m15 14h2v4h-2z"/><path d="m22 42h2v9h-2z"/><path d="m31 22v17.586l-4-4v-13.586h-2v14.414l6 6v8.586h2v-29z"/><path d="m18 51h-2v-12.414l5-5v-11.586h2v12.414l-5 5z"/><path d="m45 22h-2v2.586l-2 2-2-2v-2.586h-2v3.414l3 3v11.172l-5 5v6.414h2v-5.586l3-3v8.586h2v-22.586l3-3z"/><path d="m47 51h-2v-8.414l3-3v-17.586h2v18.414l-3 3z"/><path d="m15 22h2v8h-2z"/><path d="m55 38.586-5 5v7.414h2v-6.586l3-3z"/><path d="m15 30v2.586l-5 5v2.828l7-7v-3.414z"/></g><circle cx="49" cy="28" fill="#f69489" r="2"/><circle cx="41" cy="35" fill="#f69489" r="2"/><circle cx="32" cy="33" fill="#f69489" r="2"/><circle cx="23" cy="42" fill="#f69489" r="2"/><circle cx="16" cy="28" fill="#f69489" r="2"/></svg>